<?xml version="1.0" encoding="UTF-8"?>
<svg id="Layer_1" data-name="Layer 1" xmlns="http://www.w3.org/2000/svg" viewBox="0 0 1500 1500">
  <defs>
    <style>
      .cls-1 {
        fill: #272727;
      }

      .cls-1, .cls-2, .cls-3 {
        stroke: #231f20;
        stroke-linecap: round;
        stroke-miterlimit: 10;
      }

      .cls-2 {
        fill: #e6e6e6;
      }

      .cls-3 {
        fill: #212121;
      }
    </style>
  </defs>
  <path class="cls-1" d="M839.79,299.5v204.05c0,14.41,0,20.69,0,17.31,0-18.87,0,10.29,0,6.38,0,4.25,1.63-8.31,4.66,0,3.03-9.08,7.45,24.88,13.04,0,2.8,1.09,5.88,5.42,9.23,7.31,3.35,6.37,6.96,3.55,10.8-7.31,3.84-5.99,7.92.13,12.2-4.35,4.28,6.08,8.76,16.48,13.42,4.35,4.66-6.75,9.49-3.22,14.47.96,4.98-.1,10.1.23,15.34-.96,9.43,6.8,19.24,11.95,29.26,0,10.02-9.06,20.24-1.87,30.51,0,10.26,16.32,20.57-3.25,30.73,0,10.17-7.55,20.21-3.06,29.94,0,4.87-10.11,9.66-8.66,14.36-5.41s9.29,8.3,12.82,3.06c5.44,2.65,9.8,3.48,12.26-1.64,5.99,5.81,10.07,5.66,10.33-2.14,7.6,6.12,11.36,6.12,6.25-3.14,12.27,9.26,15.68,9.26,9.08-6.17,19.39,15.43,27.16,15.43,38.63-5.35-.73,20.78,2.24,20.78,12.03,5.34-9.79,15.44-11.21,17.68-.12.18-16.4,25.86-20.28,31.98-16.76,26.93-10.08,15.4-11.84,18.17-38.39,69.64,22.82-45.59,20.85-42.48-.11.08,16.81-38.36,14.63-35.04-1.75.56,11.83-27.37,9.47-22.46,1.41-.32,3.15-17.29.61-12.87-3.24,1.88-1.4-4.5-4.11,1.32-6.56,5.57-1.71,1.5-3.11,3.72-4.54,5.96s-2.87,4.52-4.13,6.69c-1.65,1.79-3.13,6.18-1.54,6.39-4.57,6.89-6.07,9.58-1.67.48-7.45,8.31-8.99,9.53-2.07-.72-10.02,14.66-11.59,17.86-2.14-.19-12.6,27.57-14.19,30.33-5.26-5.09-12.14,39.67-13.76,41.16-3.01.08-14,43.01-15.64,45.79-59,43.61,40.06,8.91,38.4,12.87,8.17,14.7,26.89,1.09,25.21,3.46,3.85,8.59,17.98.89,16.29,4.54,4.57,9.86,8.48-2.91,6.94,1.02,1.62,5.63,2.23,3.38.68,7.45-1.31,7.01-1.13,4.33-2.69,11.12-4.26,15.26s-3.14,5.64-4.71-.53c-3.15,16.43-6.31-1.59-9.49,17.44-1.59-4.02-3.18.24-4.51,4.54-1.85,5.12-3.45,10.28-3.61,5.76-3.03-1.68-4.63,2.16-4.12,1.93-3.7,8.83-5.3,13.58-4.03,1.91-4.47,15.04-6.07,12.96-4.89-1.41-4.37,14.31-5.97,16.33-12.32-7.57,3.16,41.29,1.57,43.92-39.71-20.26,38.09,69.11,36.5,71.41-18.81,87.26,52.14-16.69,50.56-12.08,14.62,4.92,32.77-7.08,31.19-1.78,9.47,5.76,18.57-12.21,17-9.12,3.33,3.37,5.27-2.3,7.51-2.24,7.79-.87s-1.41,4.05-3.99,6.99c1.02-4.34,1.15-6.08.55-5.92s-1.94,2.23-3.77,5.39c.64.99-.9,6.66-1.24,8.61-3.47,1.49-5.72,2.82-5.87,1.18-4.33,6.91-6.56,10.84-6.27-.63-4.7,21.09-6.89,26.77-21.61-10.34,9.29,50.01,6.08,55.07-44.35,67.94,44.12-3.74,41.02.34,19.54,15.41,16.07-6.54,13.74-2.86,5.39,6.2,3.77-1.83,1.51,1.72-1.04,5.65-1.86,3.04-4.03,6.45-6.15,9.8-6.36,10.04-12.32,19.42-17.76,28.01-5.45-6.65-10.39,29.2-14.75,23.25-4.35,12.64-8.11,19.49-11.2,17.65-3.08,3.16-5.48,16.29-7.11,11.21-1.63,8.87-2.49,10.12-2.49,3.92,0,23.96,0-18.96,0,5.65v15.63c0-4.59,0,23.51,0,23.61v242.43h521.22V299.5h-124.72c-5.14,0-10.38,0-15.48.13-5.32.12-10.51.37-7.11-1.6-14.37,1.96-20.15,1.72-3.65-8.05-23.14,11.08-24.01,12.63-.1,3.99-27.69,10.19-34.17,9.03-62.57-10.49,16.96,16.64,12,14.93-11.42,4.7,14.18,4.94,9.9,1.36-3.31-5.22,4.47-3.76.02-10.54-5.63-19.59-.53,12.06-2.64,20.09-5.54,25.33-5.79,10.48-14.67,9.82-25.52,7.83-1.5,2.98-7.42,2.98-10.95,2.79s-4.67-.57-1.02-1.33c-30.79,1.52-42.44,1.52-96.01-68.66,30.67,70.17,19.41,70.17-1.85,65.8-.67,4.38-11.34,4.38-21.62,4.38h-124.72Z"/>
  <path class="cls-2" d="M805.89,1084.59c0,4.12-2.14.51-5.34-8.42-3.2,8.01-7.48-6.58-11.75-18.53-4.27,1.14-8.55-9.38-11.75-18.53-3.2-9.91-5.34,1.06-5.34-8.42,0,8.65,0-8.76,0,6.22s0,17.47,0,16.87c0-1.62,0-1.54,0,24.87,0-4.84,0,24.81,0,30.19v16.26c0,5.49,0,11.05.75,11.68-.75,16.01-.75,27.11,6.48,13.69-7.24,34.74-7.24,44.95-6.83,69.67-.41-6.07-.41,2.36-.41,9.94v22.62h-110.78c-10.55,0-21.54,0-16.74-6.68-27.37,6.68-38.95,6.68-73.53-9.03,11.14,15.72-.73,15.72-12.72,15.71-11.75,0-23.62,0-35.35,0h-178.19v-460.73c0,5.84,0-11.62,0-11.7,0-11.67,0-15.43-.68-13.77.68-3.99.68-2.56-.1-.48.77-.64.77,2.68.56,3.54.21-.21.21-2.87-1.02-5.54,1.24-15.75,1.24-23.29,1.28-5.16-.05-27.65-.05-29.64,2.6-.87-2.65-34.72-2.65-22.33,0,0-2.64-27.24-2.64-16.62-4.27,2.28,1.63-26.87,1.63-26.49,1.7-1.42-.07-20.79-.07-16.88-1.07.56,1-14.65,1-11.93-.83,1.79,1.83-13.73,1.83-16.47.75-1.73,1.08-22.17,1.08-15.69-.73,1.48,1.81-11.94,1.81-13.2,5.2-3.15-3.39-23.22-3.39-22.52-2.16.62-1.23-26.85-1.23-31.25,10.2-6.93-11.43-30.74-11.43-36.07,20.74-47.28-32.17,5.64-32.17,6.18-6.27-13.66-25.9,8.61-25.9,21.32,3.61,4.02-29.51,12.54-29.51,16.15,3.02,6.86-32.95,10.32-32.74,9.89-1.04-4.02-31.67,9.94-31.85,6.41-11.53-12.38-19.96.03-19.96,15.13-9.87-7.96-10.08,2.22-10.08,3.12-.7-.58-9.38,9.89-9.38,14.22-4.21-3.95-5.17,5.04-5.17,1.29-2.58-2.95-2.59,10.37-2.59,11.37,2.14,2.48-4.74,5-4.74-1.86-3.76-4.8-.97.32-.97-1.76-.97-4.75,0-2.94,0-6.78,0-11.65v-8.61c0,.22,0-2.04,0-8.6v-8.52c0,1.75,0-7.43,0-8.46v-110.46c0-10.12,0-15.91,0-13.96v-48.6c0-12.89,0-20.16,0-13.86,0,3.49,0,4.99,0-13.14,0-20.88,0-10.75,0-8.22,0-10.55,0,6.08,0-15.5,0-5.68,0-17.93,0-11.51,0-2.28,0,7.71,0-8.61,0,.13,0-13.65,0-12.2,0,6.07,0-7.11,0-4,0-3.21,0,.59,0-3.57v-8.4c0-8.35,0-8.45,0-7.42v-2.54c0-1.84,2.34-1.44,6.69,0,2.17,1.9,4.84,1.5,7.97.82,3.13-7.92,6.71-.12,10.7-.82,3.99,9.01,8.4,3.24,13.18,1.28,4.78-6.92,9.92,8.95,15.39-1.28,2.05,10.3,4.15-18.25,6.29-.79,2.14-8.28,4.33,6.71,6.55.79,2.23-8.39,4.49,8.45,6.8-.56,2.31-3.8,4.65,1.91,7.03.56,2.38-10.14,4.8-19.79,7.25,0,2.45-5.63,4.94,5.38,7.46-1.46,2.52-5.69,5.07-9.25,7.65-.82,2.58-3.8,5.19-11.51,7.83,2.27,2.64-23.91,5.3-6.41,7.99-1.19,2.69.42,5.41-7.71,8.14.21,2.74,20.17,5.5-8.13,8.28.7,2.78-19.17,5.58-1.11,8.41.28,5.64-2.86,11.36-6.32,17.13-1.89,2.88-2.58,5.78-1.61,6.91-.33,4.69,1.45,7.61,3.22,3.17,2.26,13.24,3.75,19.14,3.73,4.34,12.38,26.64-10.56,32.57-12.46,9.54,22.45,34.9-34.88,40.83-34.88,87.91-4.19-35.24-30.69-29.34-30.69-5.78-24.65-13.02-6.04-8.35-6.04,1.37-5.1-.46-.94,4.14-.94,8.7-.94h13.54c3.35,0,6.67,0,8.35.71,4.29.17,6.95,1.04,3.35,4.39,10.04-3.34,13.81-4.22,1.36,4.74,18.95-7.31,21.69-4.78.05,13.79,27.75-18.57,31.12-21.1,0,16.45,38.13-37.71,41.78-35.35,79.83,13.34-32.81-48.69-31.2-51.05,1.41-20.25-28.06-31.95-25.1-30.74,2.42-13.97-23.08-16.77-21.58-17.98,1.75-9.06-19.54-9.86-17.24-9.58.97-5.96-14.1-7.15-12.3-8.29.23-7.55-8.81-.1-6.9,1.68,1.25,2.9-4.44,2.33-2.63,4.1,2.06,4.18-1.18.79.53-.12,2.65-3.79,2.83,4.04,5.9,1.35,8.74-.98s5.44-4.3,7.78,1.07c4.69,15.57,8.35-11.86,10.84,0,2.49-13.51,3.81-20.25,3.81,0,0,11.83,0-3.2,0,6.6,0-10.69,0,41.62,0,17.69,0,17.53,0,33.88,0,25.62v30.37c0,15.22,0,34.31,0,31.95v80.28h34.04c8.51-1.31,17.02-8.07,23.4,0,6.38,14.35,10.64,6,10.64,0,0-14.57,0,4.88,0-6.38,0,1.91,0-20.74,0-17.31v-204.05h-24.41c-5.18,0-11.1-.42-17.67,0-6.58-9.67-13.81,1.34-21.62,0-7.81-1.04-16.19-14.58-25.07,0-4.44,1.88-9,.35-12.81-.9-5.54-1.22-10.33-2.16-2.77.92-10.61,0-15.23,0-.95-.03-15.76.04-12.64.05.82.09-13.93-.02-20.66-.04-1.2-.08-26.81.03-27.44.04-.06.04-21.45.04-14.89.07,1.17.12-14.23-.04-21.62-.06-1.28-.06-33.3-.03-38.87-.04-2.58-.21-46.8.16-51.72.16-89.36.16,27.28.03,21.84.04-.82.08,10.12,0,3.01.04-5.53.08,9.37-.06,14.79-.11,5.28-.14,13.91-.02,12.89-.03-.15-.04,6,.02-.02.03-7.81.05,8.37-.05.77-.05-6.9-.05-5.75,0-11.55,0-15.21-1.01-7.99,1.01-13.85,1.01-9.05-7.83-16.56,8.84-22.45,8.84-23.08-12.13-11.19,20.97-17.11,20.97-33.97,5.54,7.99,15.43,5.03,15.69-9.13,6.88,8.24,9.47,5.28,9.87-5.8,5.4,5.18,5,2.22,5.13-3.89,3.32.22,1.42-2.73.89-5.67-.16-5.88,4.2-11.73,12.72-17.56,5.72-5.83-4.74-11.62-10.54-17.38-5.72-5.75-.74-11.47,6.95-17.13-3.08-5.66,9.01-11.27-18.65-16.82,3.08-5.55,20.34-11.04-22.54-16.45-.41-5.41,5.69-10.76-1.15-16.02.41-5.26-10.74-10.44-5.61-15.53,0-5.09-2.68-10.08,18.13-14.97,0-11.41-12.26-22.27-7.28-32.43,0h-14.71c-4.72,0-9.25.51-13.58,0-11.54-.77-21.61,13.61-29.92,0-8.31,2.02-14.85,2.81-19.32,0-4.46.6-6.85-4-6.85,0,0,6.52,0-5.27,0,5.25v15.13c0,8.67,0,27.25,0,24.11,0-3.68,0,4.52,0,8.12,0,5.42,0,12.73,0,10.28,0,4.02,0,10.33,0,8.1,0-.5,0,9,0,13.01v12.32c0,17.43,0,12.42,0,7.35,0-1.61,0-1.85,0,3.94v16.29c0,2.41,0,5.78,0-2.61v12.26c0,5.83,0,29.44,0,17.05,0-1.64,0-7.07,0-1.63,0,2.06,0,9.1,0,1.51,0-12.5,0-23.77,0,11.13,0,1.02,0,17.59,0,7.74,0,6.08,0,33.56,0,8.67,0-20.85,0-13.63,0,1.38,0-15.87,0,15.02,0,12.19,0,13.56,0,30.15,0,7.23,0,14.92,0-27.69,0,7.91,0,21.23,0,1.68,0,8.27,0,10.73,0,8.7,0,8.31,0,9.11,0,23.42,0,16.2v124.07c0,6.18,0,12.44-4.53,16.55,4.53,8.41,4.53,14.68-3.27,21.25,7.8,3.28,7.8,6.18,1.48,10.88,6.32.83,6.32,3.48,2.62,8.65,3.7,1.06,3.7,3.55,2.59,7.13,1.11,1.86,1.11,4.81,1.11,8.84,0-3.24,0,31.72,0,22.18,0,.48,0-2.03,0,14.02,0,25.02,0,30.97,0,18.17,0,23.25,0,10.57,0,18.19v509.48h284.09c11.84,0,23.67,0,33,6.25,14.19-6.25,25.86-6.25,39.79-3.03,9.09-3.22,20.43-3.22,31.53-3.22h179.77v-242.43c0-6.14,0-30.8,0-23.61v-15.63c0-18.46,0-31.63,0-5.65s-2.12,13.04-5.3,8.35c-3.18-8.89-7.42,5.22-11.66,18.38-4.24,18.2-8.48,2.59-11.66,18.38-3.18,10.06-5.3,22.33-5.3,8.35Z"/>
  <path class="cls-3" d="M452.4,527.24c0,4,.51-5.23,1.49,2.35.98,7.68,2.43,4.37,4.31,6.8,1.88.17,4.19,3.27,6.89,10.86,2.7-1.5,5.78,19.06,9.22,14.53,3.43,9.87,7.21,13.88,11.3,17.82,4.09,8.95,8.48,8.73,13.14,20.72,4.66,7.78,9.58,18.08,14.73,23.23,5.15,4.8,10.52,18.92,16.08,25.36,5.56,9.18,11.3,15.67,17.19,27.1,2.94,6.7,5.92,9.75,8.93,13.16,3.01,3.4,6.05,7.17,9.69,12.1,2.48,9.38,5.58,14.83,9.02,7.88,2.78,16.66,5.91,20.93,8.37,6.51,3.84,23.19,7.01,28.17,5.99,10.35,7.36,27.83,10.54,32.85-7.16,46.29,24-3.52,27.11,1.39,14.22,23.37,19.12-12.16,22.24-7.25,20.53,10.21,7.93-7.65,11.03-2.76,13.74,6.45,3.48.55,6.57,5.41,9.64,10.26,4.1,6.46,8.17,12.87,12.2,19.23,4.03,3.67,8.03,10.14,11.98,18.89,3.95,8.69,7.85,13.04,11.7,18.44,3.84,2.73,7.63,9.45,11.34,17.89l10.92,17.23,20.32,32.04c4.56,7.2,8.92,14.06,13.02,20.54,4.11-1.42,7.97,13.41,11.56,18.23,3.59,9.9,6.9,18.28,9.9,15.61,3,8.84,5.69,1.63,8.04,12.68,2.35,8.55,4.35,6.24,5.99,9.44,1.63,6.23,2.89-10.12,3.74,5.89.85,11.32,1.29-4.77,1.29,2.03,0,10.15,0-7.81,0-3.32,0-3.46,0,12.82,0-9.51,0-4.51,0,5.37,0-15.06v-51.98s0-6.98,0-19.95v-17.02c0-7.31,0-10.42-1.34-10.58,1.34-2.73,1.34-2.49-.53-1.28,1.87-4.59,1.87-9.3-3.52-6.77,5.39-9.93,5.39-12.61-1.32-2.24,6.71-10.1,6.71-11.33-.65-1.1,7.36-15.14,7.36-18.82-.85-1.45,8.21-23.33,8.21-28.58-.29-.51,8.5-36.22,8.5-40.95-.14-.24,8.64-49.12,8.64-52.79.26.28,8.38-50.13,8.38-57.91,4.58,5.59,3.8-76,3.8-80.73,2.57,3.12,1.23-79.22,1.23-84,72.03-52.36-70.8-38.65-70.8-40.88-19.57-21.02-51.23-15.66-51.23-20.43-13.3-19.08-37.93-11.26-37.93-16.39-6.63-15.02-31.3-4.01-31.3-3.45-3.19-6.76-28.11,2.18-28.11.49-5.87-12.51-22.24-2.71-22.24-5.58-4.21-6.54-18.02-3.44-18.02-4.97-1.4-2.97-16.62-2.85-16.62-4.31-.24-.77-15.35-3.89-15.87-7.8-4.23-11.81-10.42,1.36-8.68,2.63,3.24,5.5-11.92-7.71-13.66-12.66-7.04-16.27-5.68,1.34-3.01,4.02,5.9,8.37-8.91-5-11.58-8.34-7.2-12.66-3.96-.33-.86-1.65,5.39-3.97-6.25-2.95-9.35-4.57-8.59-7.06-1.03-1.57,1.81-4,7.48-8.61-5.67,3.46-8.51,4.75-8.8,2.5-.91-2.02.72-7.57,3.98-17.79-3.26,8.17-4.89,12.34-4.75,12.45-.03.17,1.7-3.73,5.17-11.68-3.46,6.4-5.2,9.34-5.44,8.76-.29-.56.91-4.63,3.32-12.25-4.81,11.28-4.81,8.39-3.94-4.96-.86-4.18-.86,8.63-1.32-2.58.45,1.1.45,1.17,0-2.74.44,1.5.44-.98.44-10.1,0-11.69,0-.55,0-6.31,0-3.43,0,3.95,0-14,0-10.46,0-17.32,0-14.5,0-3.26,0,10.71,0,.12v-7.71c0-7.77,0,11.31,0-6.35v-12.83c0,.15,0-5.68,0-4.74v-83.21h-30.34c-6.25,1.08-13.3,1.28-20.98,0-7.68-1-16,2.81-24.78,0-8.79,5.84-18.04-24.78-27.6,0-9.56,15.46-19.43-.23-29.44,0-10.01-21.14-20.17,7.95-30.3,0-10.13,12.37-20.25-14.67-30.18,0-5.59-10.42-11.11,11.9-16.55,0-5.44-15.59-10.79-8.02-16.03,0-5.24-17.49-10.36-.24-15.33-2.72-4.97,7.02-9.8-6.27-14.46,2.72-4.65-2.19-9.13,1.53-13.41-.63-4.28-.21-8.35-.2-12.19.63-7.68-3.19-14.43.91-20.01,0-5.59,6.87-10.01-11.36-13.03,0-3.03-5.84-4.65-4.84-4.65,0Z"/>
</svg>